<svg width="52" height="52" viewBox="0 0 52 52" fill="none" xmlns="http://www.w3.org/2000/svg">
<g clip-path="url(#clip0_166_76)">
<mask id="mask0_166_76" style="mask-type:alpha" maskUnits="userSpaceOnUse" x="0" y="0" width="52" height="52">
<path d="M52 0H0V52H52V0Z" fill="white"/>
</mask>
<g mask="url(#mask0_166_76)">
<path d="M26 0C11.664 0 0 11.663 0 26C0 40.337 11.664 52 26 52C40.336 52 52 40.337 52 26C52 11.663 40.336 0 26 0ZM26 50C12.767 50 2 39.233 2 26C2 12.767 12.767 2 26 2C39.233 2 50 12.767 50 26C50 39.233 39.233 50 26 50Z" fill="#F97F1B"/>
<path d="M38.2521 15.336L22.8831 32.626L13.6241 25.219C13.1941 24.874 12.5631 24.945 12.2191 25.375C11.8741 25.807 11.9442 26.436 12.3751 26.781L22.3751 34.781C22.5591 34.928 22.7801 35 23.0001 35C23.2761 35 23.5511 34.886 23.7481 34.664L39.7482 16.664C40.1152 16.252 40.0782 15.619 39.6652 15.253C39.2512 14.885 38.6201 14.922 38.2521 15.336Z" fill="#F97F1B"/>
</g>
</g>
<defs>
<clipPath id="clip0_166_76">
<rect width="52" height="52" fill="white"/>
</clipPath>
</defs>
</svg>
